<svg width="16" height="16" viewBox="0 0 16 16" fill="none" xmlns="http://www.w3.org/2000/svg">
<path d="M4.0836 14.1878L4.07249 14.1954L4.06181 14.2036C4.03221 14.2264 4.00874 14.2321 3.99134 14.2332C3.97153 14.2344 3.94728 14.2301 3.92186 14.2166C3.86986 14.189 3.83333 14.1358 3.83333 14.0666V1.93327C3.83333 1.86407 3.86987 1.81087 3.92186 1.78328C3.94728 1.76979 3.97153 1.76545 3.99134 1.76668C4.00874 1.76777 4.03221 1.77348 4.06181 1.79625L4.073 1.80486L4.08466 1.81282L12.918 7.84616L12.918 7.84618L12.9226 7.8493C12.9798 7.88739 13 7.93754 13 7.98327C13 8.029 12.9798 8.07916 12.9226 8.11725L12.9226 8.11721L12.9169 8.12112L4.0836 14.1878Z" fill="#171719" stroke="#171719"/>
</svg>
