<svg width="23" height="24" viewBox="0 0 23 24" fill="none" xmlns="http://www.w3.org/2000/svg">
<rect width="23" height="24" rx="11.5" fill="#63676F"/>
<path d="M12.3097 11.0249C12.2411 10.8094 12.1488 10.6165 12.0328 10.446C11.9191 10.2732 11.783 10.1264 11.6244 10.0057C11.4658 9.88258 11.2847 9.78906 11.0811 9.72514C10.8798 9.66122 10.6585 9.62926 10.417 9.62926C10.0074 9.62926 9.63811 9.73461 9.30904 9.94531C8.97997 10.156 8.71955 10.465 8.52779 10.8722C8.33839 11.277 8.2437 11.773 8.2437 12.3601C8.2437 12.9496 8.33958 13.4479 8.53134 13.8551C8.7231 14.2623 8.98588 14.5713 9.31969 14.782C9.6535 14.9927 10.0335 15.098 10.4596 15.098C10.855 15.098 11.1994 15.0175 11.493 14.8565C11.7889 14.6955 12.0174 14.4683 12.1784 14.1747C12.3417 13.8788 12.4234 13.5308 12.4234 13.1307L12.7075 13.1839H10.6265V12.2784H13.4852V13.1058C13.4852 13.7166 13.355 14.2469 13.0945 14.6967C12.8365 15.1442 12.479 15.4898 12.0221 15.7337C11.5676 15.9775 11.0467 16.0994 10.4596 16.0994C9.80146 16.0994 9.22381 15.9479 8.72665 15.6449C8.23186 15.3419 7.84597 14.9122 7.56898 14.3558C7.29199 13.7971 7.1535 13.1342 7.1535 12.3672C7.1535 11.7872 7.23399 11.2663 7.39498 10.8047C7.55596 10.343 7.78205 9.95123 8.07324 9.62926C8.3668 9.30492 8.71126 9.05753 9.10662 8.88707C9.50435 8.71425 9.93877 8.62784 10.4099 8.62784C10.8029 8.62784 11.1686 8.68584 11.5072 8.80185C11.8481 8.91785 12.1511 9.08239 12.4163 9.29545C12.6838 9.50852 12.9052 9.76184 13.0803 10.0554C13.2555 10.3466 13.3739 10.6697 13.4355 11.0249H12.3097ZM14.6347 16V10.5455H15.6965V16H14.6347ZM15.1709 9.70384C14.9862 9.70384 14.8276 9.64228 14.695 9.51918C14.5648 9.3937 14.4997 9.24455 14.4997 9.07173C14.4997 8.89654 14.5648 8.7474 14.695 8.62429C14.8276 8.49882 14.9862 8.43608 15.1709 8.43608C15.3556 8.43608 15.513 8.49882 15.6432 8.62429C15.7758 8.7474 15.8421 8.89654 15.8421 9.07173C15.8421 9.24455 15.7758 9.3937 15.6432 9.51918C15.513 9.64228 15.3556 9.70384 15.1709 9.70384Z" fill="#E5EEFF" fill-opacity="0.65"/>
</svg>
